<svg version="1.0" xmlns="http://www.w3.org/2000/svg" width="933.333" height="933.333" viewBox="0 0 700 700"><path d="M291.6 98.5c-9.3 5.7-17.3 10.8-17.8 11.3-.6.6.7 3.6 3.3 7.8 2.3 3.8 8.6 14.1 13.9 22.9 5.4 8.8 13.5 22.1 18 29.5 4.6 7.4 9.4 15.5 10.8 18 1.4 2.5 2.9 5.2 3.5 6 .7 1.2-.9 4.5-6.2 13-3.9 6.3-8.5 14-10.3 17-1.8 3-11.7 19.4-22.2 36.5-10.4 17-19.9 32.6-21 34.6-1.2 1.9-6.1 10.2-11.1 18.3-4.9 8.1-10.1 16.6-11.5 18.9-1.4 2.3-3.9 6.4-5.5 9-1.7 2.7-7.7 12.6-13.4 22-5.7 9.5-12.7 21-15.6 25.7-19.4 31.5-32.5 53.3-32.5 54.1 0 .5-.4.9-1 .9-.5 0-1 .4-1 .9s-5.5 9.8-12.1 20.7c-24.7 40.4-40.3 66-41.6 68.4-.8 1.4-5.8 9.7-11.2 18.5l-9.8 16-18.9.2c-10.4.1-22.5.2-26.9.2l-8 .1.1 21c0 11.6.4 21.3.8 21.8 1.1 1.1 610.7.9 611.4-.2.8-1.3.8-40.6 0-41.9-.4-.7-8.8-1-26.5-.9l-25.9.2-5-7.7c-2.7-4.3-5.4-8.7-6-9.8-.6-1.1-6.2-10.3-12.4-20.5s-12-19.7-12.9-21.2c-.9-1.6-8.5-14.2-17-28-8.5-13.9-16-26.2-16.5-27.3-.6-1.1-1.3-2.2-1.6-2.5-.3-.3-3-4.6-5.9-9.5-3-5-10.2-16.9-16.1-26.5-5.9-9.6-24-39.3-40.2-66-16.3-26.7-37.1-60.9-46.3-76-9.2-15.1-19.4-31.8-22.5-37-3.1-5.2-10.1-16.7-15.5-25.5l-9.7-16 2.7-5c1.6-2.7 3.2-5.5 3.6-6.1.5-.5 3.8-5.9 7.4-12 3.6-6 6.9-11.6 7.4-12.4.5-.8 7.5-12.2 15.5-25.3 8.1-13.1 14.4-24.2 14.1-24.7-.4-.7-11.4-7.6-18.3-11.5-1-.6-5.2-3.2-9.5-5.8-4.2-2.7-8.1-4.6-8.7-4.2-.8.5-9.4 14-14 21.9-1.9 3.3-22.1 36.5-24.6 40.4-1.5 2.2-1.8 1.8-11.1-13.5-5.2-8.7-12.3-20.3-15.7-25.8-6.7-10.8-6.7-11-11.1-18.4-1.6-2.8-3.4-5.1-4-5-.5 0-8.6 4.7-17.9 10.4zm73.9 164.2c31.9 52.6 51.9 85.4 63.7 104.6 4.3 7 7.8 13 7.8 13.3 0 .2.5 1 1 1.7.6.7 6.9 10.9 14 22.7 7.2 11.8 13.4 22.2 13.9 23 .5.8 5.5 8.9 11.1 18s10.5 17.2 11 18c.9 1.4 5.2 8.4 27 44.5 5.4 8.8 13.5 22.1 18 29.5 4.6 7.4 9.1 14.8 10 16.5.9 1.6 3.1 5.3 4.8 8.1 1.8 2.8 3.2 5.4 3.2 5.7 0 .3-40.3.6-89.5.5H372v-8.1c-.1-4.5-.1-43.9-.1-87.5V394l-3.7-.1c-5.7-.1-34.4-.1-37.4 0l-2.7.1v170.7l-.1 4.2-89.5-.1c-49.2 0-89.5-.3-89.5-.5 0-.9 11.5-19.8 12.2-20.1.5-.2.8-.7.8-1.2s2.3-4.6 5.1-9.2 7.8-12.8 11.2-18.3c3.3-5.5 7-11.6 8.2-13.5 1.2-1.9 13.2-21.5 26.5-43.5s26.6-43.8 29.5-48.5c6.5-10.5 20.6-33.8 22-36.2.6-1 17.2-28.4 37-60.8 19.8-32.5 38.7-63.5 42-69 3.3-5.5 6.2-10 6.5-10 .3 0 7.3 11.1 15.5 24.7z"/></svg>